<?xml version="1.0" encoding="UTF-8"?>
<svg width="40px" height="40px" viewBox="0 0 40 40" version="1.1" xmlns="http://www.w3.org/2000/svg" xmlns:xlink="http://www.w3.org/1999/xlink">
    <!-- Generator: Sketch 60.1 (88133) - https://sketch.com -->
    <title>ic/no service charge</title>
    <desc>Created with Sketch.</desc>
    <defs>
        <path d="M19.1666667,35.9375 C14.9738086,35.9375 11.1347852,34.390166 8.19090495,31.836582 L15.5730664,24.4544206 L21.9122917,30.7936458 C22.1470833,31.0284375 22.45375,31.1458333 22.7604167,31.1458333 C23.0670833,31.1458333 23.37375,31.0284375 23.6085417,30.7960417 C24.0757292,30.3288542 24.0757292,29.569375 23.6085417,29.1021875 L17.2669206,22.7605664 L18.4875977,21.5398893 C21.1480957,21.3107878 23.313929,19.3370703 23.8361458,16.7708333 L25.15625,16.7708333 C25.8175,16.7708333 26.3541667,16.2341667 26.3541667,15.5729167 C26.3541667,15.0593848 26.0298307,14.6222201 25.575446,14.4519661 L31.836582,8.19083008 C34.3900163,11.1344108 35.9375,14.9731348 35.9375,19.1666667 C35.9375,28.4145833 28.4121875,35.9375 19.1666667,35.9375 M22.7292708,11.9791667 L24.6600879,11.9791667 L23.45139,13.1879395 C23.2568783,12.7569141 23.012054,12.3528418 22.7292708,11.9791667 M2.39583333,19.1666667 C2.39583333,9.91875 9.92114583,2.39583333 19.1666667,2.39583333 C23.3595247,2.39583333 27.1985482,3.94316732 30.1425033,6.4967513 L26.2772005,10.362054 C26.1069466,9.90766927 25.6697819,9.58333333 25.15625,9.58333333 L17.96875,9.58333333 L13.1770833,9.58333333 C12.5158333,9.58333333 11.9791667,10.12 11.9791667,10.78125 C11.9791667,11.4425 12.5158333,11.9791667 13.1770833,11.9791667 L17.96875,11.9791667 C19.5284375,11.9791667 20.8461458,12.9830208 21.3420833,14.375 L13.1770833,14.375 C12.5158333,14.375 11.9791667,14.9116667 11.9791667,15.5729167 C11.9791667,16.2341667 12.5158333,16.7708333 13.1770833,16.7708333 L19.8684212,16.7708333 L17.4725879,19.1666667 L13.1770833,19.1666667 C13.0213542,19.1666667 12.865625,19.1978125 12.7194792,19.2577083 C12.4271875,19.3798958 12.1923958,19.6122917 12.0702083,19.9069792 C11.9480208,20.1992708 11.9480208,20.5298958 12.0702083,20.8221875 C12.1301042,20.9707292 12.21875,21.1024251 12.3313542,21.2127083 L13.8789876,22.7602669 L6.4967513,30.1425033 C3.94324219,27.1989225 2.39583333,23.3601986 2.39583333,19.1666667 M19.1666667,0 C8.59864583,0 0,8.59864583 0,19.1666667 C0,29.7346875 8.59864583,38.3333333 19.1666667,38.3333333 C29.7346875,38.3333333 38.3333333,29.7346875 38.3333333,19.1666667 C38.3333333,8.59864583 29.7346875,0 19.1666667,0" id="path-1"></path>
    </defs>
    <g id="mobile-view" stroke="none" stroke-width="1" fill="none" fill-rule="evenodd">
        <g id="Landing-v2-Copy-6" transform="translate(-310.000000, -687.000000)">
            <g id="Group-26" transform="translate(307.000000, 684.000000)">
                <g id="Group-25">
                    <g id="ic/no-hidden-charge">
                        <g id="🎨-Color" transform="translate(3.833333, 3.833333)">
                            <mask id="mask-2" fill="white">
                                <use xlink:href="#path-1"></use>
                            </mask>
                            <use id="Mask" fill="#000000" xlink:href="#path-1"></use>
                            <g id="c/grey/600" mask="url(#mask-2)" fill="#80868B">
                                <g transform="translate(-3.833333, -3.833333)" id="Shape">
                                    <rect x="0" y="0" width="46" height="46"></rect>
                                </g>
                            </g>
                        </g>
                    </g>
                </g>
            </g>
        </g>
    </g>
</svg>