<?xml version="1.0" encoding="utf-8"?>
<!-- Generator: Adobe Illustrator 24.1.0, SVG Export Plug-In . SVG Version: 6.00 Build 0)  -->
<svg version="1.1"
	 id="Layer_1" xmlns:cc="http://creativecommons.org/ns#" xmlns:dc="http://purl.org/dc/elements/1.1/" xmlns:inkscape="http://www.inkscape.org/namespaces/inkscape" xmlns:rdf="http://www.w3.org/1999/02/22-rdf-syntax-ns#" xmlns:sodipodi="http://sodipodi.sourceforge.net/DTD/sodipodi-0.dtd" xmlns:svg="http://www.w3.org/2000/svg"
	 xmlns="http://www.w3.org/2000/svg" xmlns:xlink="http://www.w3.org/1999/xlink" x="0px" y="0px" viewBox="0 0 150 150"
	 style="enable-background:new 0 0 150 150;" xml:space="preserve">
<g>
	<path d="M75.7,75.9V47.4c0-1.5-1.2-2.7-2.7-2.7c-1.5,0-2.7,1.2-2.7,2.7V77c0,0.1,0.1,0.2,0.1,0.3c0,0.2,0,0.5,0.1,0.7
		c0.1,0.2,0.2,0.4,0.4,0.6c0.1,0.1,0.1,0.2,0.2,0.3l11.4,11.8c0.5,0.5,1.2,0.8,1.9,0.8c0.7,0,1.3-0.3,1.9-0.8c1.1-1,1.1-2.7,0.1-3.8
		L75.7,75.9z"/>
	<path d="M107,35.1C96.8,26.8,83.9,22.9,70.8,24c-1.7-3.5-5.2-6-9.4-6c-5.7,0-10.4,4.7-10.4,10.4c0,5.7,4.7,10.4,10.4,10.4
		c5.4,0,9.8-4.2,10.3-9.5c11.6-0.8,22.9,2.7,32,9.9c19.7,15.8,22.9,44.7,7.1,64.5c-0.9,1.2-0.7,2.8,0.4,3.8c0.5,0.4,1.1,0.6,1.7,0.6
		c0.8,0,1.6-0.3,2.1-1C132.6,85,129.1,52.7,107,35.1z"/>
	<path d="M88.6,111.2c-5.4,0-9.8,4.2-10.3,9.5c-11.6,0.8-22.9-2.6-31.9-9.9C26.6,95,23.4,66,39.2,46.3c0.9-1.2,0.7-2.8-0.4-3.8
		S36,41.8,35.1,43c-17.7,22-14.1,54.3,7.9,72c9.2,7.3,20.4,11.3,32,11.3c1.4,0,2.8-0.1,4.3-0.2c1.7,3.5,5.2,6,9.4,6
		c5.7,0,10.4-4.7,10.4-10.4C98.9,115.9,94.3,111.2,88.6,111.2z"/>
</g>
</svg>
